<svg width="21" height="21" viewBox="0 0 21 21" fill="none" xmlns="http://www.w3.org/2000/svg">
  <path d="M16.3508 11.1566C16.3792 14.3346 19.0304 15.3922 19.0598 15.4056C19.0374 15.4802 18.6362 16.9128 17.663 18.3925C16.8217 19.6717 15.9486 20.9463 14.5732 20.9727C13.2217 20.9986 12.7871 20.1389 11.242 20.1389C9.69734 20.1389 9.21451 20.9463 7.93518 20.9986C6.60755 21.0509 5.59657 19.6153 4.74832 18.3407C3.01502 15.7335 1.69042 10.9733 3.46903 7.76014C4.3526 6.16446 5.93161 5.15402 7.64548 5.1281C8.94918 5.10223 10.1797 6.04065 10.9767 6.04065C11.7731 6.04065 13.2685 4.91212 14.8405 5.07786C15.4986 5.10636 17.3459 5.35444 18.5321 7.16093C18.4365 7.22257 16.3279 8.49974 16.3508 11.1566V11.1566ZM13.8109 3.35296C14.5157 2.46528 14.9901 1.22955 14.8607 0C13.8447 0.0424842 12.6162 0.704394 11.8874 1.59159C11.2343 2.37724 10.6624 3.63472 10.8167 4.83994C11.9491 4.93109 13.106 4.24121 13.8109 3.35297" fill="white" />
</svg>