<svg width="553" height="307" viewBox="0 0 553 307" fill="none" xmlns="http://www.w3.org/2000/svg">
<mask id="mask0_2001_587" style="mask-type:alpha" maskUnits="userSpaceOnUse" x="100" y="-23" width="463" height="348">
<rect x="100" y="-23" width="463" height="348" fill="white"/>
</mask>
<g mask="url(#mask0_2001_587)">
<path d="M389.375 267.2C389.375 299.233 363.463 325.2 331.5 325.2V267.2H389.375Z" fill="#3699FF"/>
<path d="M505.125 209.2C473.162 209.2 447.25 183.232 447.25 151.2H505.125V209.2Z" fill="#D6DA34"/>
<path d="M331.919 337.578C293.077 337.578 261.589 306.042 261.589 267.14H331.919V337.578Z" fill="#6ED47C"/>
<path d="M331.5 296.8C315.187 296.8 301.964 283.548 301.964 267.2H331.5V296.8Z" fill="#D5E155"/>
<path d="M562.132 6.29004L533.194 6.29004C517.213 6.29004 504.257 19.2738 504.257 35.29H533.194C549.176 35.29 562.132 22.3063 562.132 6.29004Z" fill="#6ED47C"/>
<path d="M389.375 238.2H418.166C434.229 238.2 447.25 251.184 447.25 267.2H418.459C402.396 267.2 389.375 254.216 389.375 238.2Z" fill="#6ED47C"/>
<path d="M447.25 325.2V267.2C447.25 235.168 473.162 209.2 505.125 209.2V267.2C505.125 299.232 479.213 325.2 447.25 325.2Z" fill="#6ED47C"/>
<path d="M476.188 267V238.246C476.188 222.205 489.143 209.2 505.125 209.2V237.954C505.125 253.996 492.169 267 476.188 267Z" fill="#2D3652"/>
<path d="M430.087 209C430.087 199.39 437.86 191.6 447.45 191.6C457.039 191.6 464.812 199.39 464.812 209C464.812 218.61 457.039 226.4 447.45 226.4C437.86 226.4 430.087 218.61 430.087 209Z" fill="#FF743C"/>
<path d="M438.868 209.1C438.868 204.295 442.755 200.4 447.549 200.4C452.344 200.4 456.231 204.295 456.231 209.1C456.231 213.905 452.344 217.8 447.549 217.8C442.755 217.8 438.868 213.905 438.868 209.1Z" fill="#FFC700"/>
<path d="M505.125 122C505.125 105.984 492.169 93 476.188 93C460.206 93 447.25 105.984 447.25 122C447.25 138.016 460.206 151 476.188 151H505.125V122Z" fill="#FF743C"/>
<path d="M504.392 34.8604V55.8242C504.392 67.4021 495.021 76.7881 483.461 76.7881V55.8242C483.461 44.2463 492.832 34.8604 504.392 34.8604Z" fill="#A04AE3"/>
<path d="M505.125 136C505.125 127.716 498.424 121 490.157 121C481.891 121 475.19 127.716 475.19 136C475.19 144.284 481.891 151 490.157 151H505.125V136Z" fill="#FFC700"/>
<path d="M389.375 296.2C389.375 280.184 402.331 267.2 418.312 267.2C434.294 267.2 447.25 280.184 447.25 296.2C447.25 312.216 434.294 325.2 418.312 325.2C402.331 325.2 389.375 312.216 389.375 296.2Z" fill="#FF743C"/>
<path d="M402.347 295.9C402.347 287.009 409.54 279.8 418.412 279.8C427.285 279.8 434.478 287.009 434.478 295.9C434.478 304.792 427.285 312 418.412 312C409.54 312 402.347 304.792 402.347 295.9Z" fill="#2D3652"/>
<path d="M504.925 93.0001C504.925 60.9679 530.837 35.0001 562.8 35.0001V93.0001L504.925 93.0001Z" fill="#FF743C"/>
<path d="M562.8 209C530.837 209 504.925 183.032 504.925 151L562.8 151V209Z" fill="#3699FF"/>
<path d="M504.925 151C504.925 118.967 530.837 93 562.8 93V151H504.925Z" fill="#6ED47C"/>
<path d="M533.264 151C533.264 134.652 546.488 121.4 562.8 121.4V151H533.264Z" fill="#D5E155"/>
<path d="M505.125 296.29C505.125 312.306 518.081 325.29 534.062 325.29C550.044 325.29 563 312.306 563 296.29C563 280.274 550.044 267.29 534.062 267.29H505.125V296.29Z" fill="#FFC700"/>
<path d="M505.125 282.29C505.125 290.574 511.826 297.29 520.093 297.29C528.359 297.29 535.06 290.574 535.06 282.29C535.06 274.006 528.359 267.29 520.093 267.29H505.125V282.29Z" fill="#FF743C"/>
<path d="M533.863 209C549.845 209 562.8 221.984 562.8 238C562.8 254.016 549.845 267 533.863 267C517.881 267 504.925 254.016 504.925 238C504.925 221.984 517.881 209 533.863 209Z" fill="#FF743C"/>
<path d="M534.162 222C543.035 222 550.228 229.208 550.228 238.1C550.228 246.992 543.035 254.2 534.162 254.2C525.29 254.2 518.097 246.992 518.097 238.1C518.097 229.208 525.29 222 534.162 222Z" fill="#2D3652"/>
<path d="M305.964 225.212H347.826C370.946 225.212 389.689 243.984 389.689 267.14H347.826C324.707 267.14 305.964 248.368 305.964 225.212Z" fill="#A04AE3"/>
<path d="M347.826 246.176H368.652C380.27 246.176 389.689 255.562 389.689 267.14H368.864C357.245 267.14 347.826 257.754 347.826 246.176Z" fill="#6ED47C"/>
</g>
</svg>
