<svg width="24" height="24" viewBox="0 0 24 24" fill="none" xmlns="http://www.w3.org/2000/svg">
<path d="M7.99634 18C9.09634 18 9.99634 18.9 9.99634 20C9.99634 21.1 9.09634 22 7.99634 22C6.89634 22 6.0061 21.1 6.0061 20C6.0061 18.9 6.89634 18 7.99634 18ZM17.9963 18C19.0963 18 19.9963 18.9 19.9963 20C19.9963 21.1 19.0963 22 17.9963 22C16.8963 22 16.0061 21.1 16.0061 20C16.0061 18.9 16.8963 18 17.9963 18ZM4.63599 2C5.01599 2 5.37638 2.22031 5.53638 2.57031L6.2063 4H21.0061C21.7661 4 22.2462 4.82047 21.8762 5.48047L18.2961 11.9697C17.9561 12.5897 17.2961 13 16.5461 13H9.09595L7.99634 15H18.9963C19.5463 15 19.9963 15.45 19.9963 16C19.9963 16.55 19.5463 17 18.9963 17H7.99634C6.47642 17 5.51655 15.3702 6.24634 14.0303L7.59595 11.5898L3.99634 4H2.99634C2.44634 4 1.99634 3.55 1.99634 3C1.99634 2.45 2.44634 2 2.99634 2H4.63599Z" fill="#1B1B1B"/>
</svg>
