<svg width="21" height="21" viewBox="0 0 21 21" fill="none" xmlns="http://www.w3.org/2000/svg">
  <g clip-path="url(#clip0_2001_849)">
    <path d="M19.8411 3.09286e-10H1.15106C0.84506 0.00207934 0.552299 0.125099 0.336656 0.342217C0.121013 0.559335 -7.06435e-06 0.852928 3.09286e-10 1.15894V19.8489C0.00207934 20.1549 0.125099 20.4477 0.342217 20.6633C0.559335 20.879 0.852928 21 1.15894 21H11.2179V12.8796H8.48794V9.69938H11.2179V7.36312C11.2179 4.6515 12.8756 3.16312 15.2946 3.16312C16.1109 3.15966 16.9268 3.20173 17.7384 3.28913V6.132H16.0584C14.7459 6.132 14.4926 6.762 14.4926 7.6755V9.69938H17.64L17.22 12.8796H14.49V21H19.8411C20.1484 21 20.4432 20.8779 20.6606 20.6606C20.8779 20.4432 21 20.1484 21 19.8411V1.15106C20.9979 0.84506 20.8749 0.552299 20.6578 0.336656C20.4407 0.121013 20.1471 -7.06435e-06 19.8411 3.09286e-10V3.09286e-10Z" fill="white" />
  </g>
  <defs>
    <clipPath id="clip0_2001_849">
      <rect width="21" height="21" fill="white" />
    </clipPath>
  </defs>
</svg>