<svg width="152" height="43" viewBox="0 0 152 43" fill="none" xmlns="http://www.w3.org/2000/svg">
<g clip-path="url(#clip0_2001_899)">
<rect width="43" height="43" rx="21.5" fill="#3DCBB1"/>
<rect x="4.70312" y="4.70312" width="33.5938" height="33.5938" rx="16.7969" fill="#3DCBB1"/>
<path d="M29.7594 23.8086C34.2105 23.8086 36.9199 26.6728 36.9199 31.9367V43.7031H29.7594V32.9043C29.7594 31.5883 29.1401 30.6981 27.7854 30.6981C26.1211 30.6981 25.5018 32.0141 25.5018 33.5623V43.7031H18.3413V32.9043C18.3413 31.5883 17.722 30.6981 16.3673 30.6981C14.703 30.6981 14.0837 32.0141 14.0837 33.5623V43.7031H6.92322V24.3504H14.0837V26.1696C15.2062 24.7762 16.9866 23.8086 19.3476 23.8086C21.5539 23.8086 23.1795 24.6214 24.1858 26.2083C25.4244 24.7762 27.1661 23.8086 29.7594 23.8086Z" fill="white"/>
</g>
<path d="M63.3196 15.3765V27.8262H60.4739V20.5876L57.2548 25.8698H56.9346L53.7155 20.5876V27.8262H50.8699V15.3765H53.7155L57.0947 20.9077L60.4739 15.3765H63.3196ZM70.9728 18.9335H73.8184L70.7771 27.5594C69.7812 30.3873 68.1983 31.5077 65.7083 31.3832V28.8933C66.9533 28.8933 67.5402 28.502 67.9315 27.4171L64.3922 18.9335H67.3268L69.301 24.3758L70.9728 18.9335ZM80.8307 28.0752C77.078 28.0752 74.3569 25.2651 74.3569 21.6013C74.3569 17.9376 77.078 15.1275 80.8307 15.1275C83.0894 15.1275 85.0814 16.248 86.1663 18.0087L83.7119 19.4315C83.1606 18.4711 82.0935 17.902 80.8307 17.902C78.6253 17.902 77.2025 19.3782 77.2025 21.6013C77.2025 23.8245 78.6253 25.3007 80.8307 25.3007C82.0935 25.3007 83.1784 24.7315 83.7119 23.7711L86.1663 25.1939C85.0992 26.9547 83.1072 28.0752 80.8307 28.0752ZM91.7663 28.0752C89.1518 28.0752 87.0532 26.0299 87.0532 23.3799C87.0532 20.7298 89.1518 18.6845 91.7663 18.6845C94.3807 18.6845 96.4794 20.7298 96.4794 23.3799C96.4794 26.0299 94.3807 28.0752 91.7663 28.0752ZM91.7663 25.4785C92.9223 25.4785 93.8116 24.6426 93.8116 23.3799C93.8116 22.1171 92.9223 21.2812 91.7663 21.2812C90.6102 21.2812 89.721 22.1171 89.721 23.3799C89.721 24.6426 90.6102 25.4785 91.7663 25.4785ZM103.733 18.9335H106.401V27.8262H103.733V26.9903C103.253 27.6483 102.364 28.0752 101.19 28.0752C99.3934 28.0752 97.8639 26.7946 97.8639 24.3936V18.9335H100.532V24.0023C100.532 25.105 101.225 25.6208 102.079 25.6208C103.057 25.6208 103.733 25.0517 103.733 23.7889V18.9335ZM111.025 20.5164C111.381 19.3248 112.572 18.7557 113.693 18.7557V21.7792C112.59 21.6013 111.025 22.046 111.025 23.8067V27.8262H108.357V18.9335H111.025V20.5164ZM117.205 21.5302C117.205 22.5439 121.58 21.8681 121.58 25.1584C121.58 27.2037 119.802 28.0752 117.881 28.0752C116.102 28.0752 114.751 27.3993 114.057 25.9587L116.369 24.6426C116.6 25.3184 117.098 25.6919 117.881 25.6919C118.521 25.6919 118.841 25.4963 118.841 25.1406C118.841 24.1624 114.466 24.6782 114.466 21.6013C114.466 19.6627 116.102 18.6845 117.952 18.6845C119.393 18.6845 120.673 19.3248 121.42 20.5876L119.144 21.8147C118.895 21.3523 118.539 21.0322 117.952 21.0322C117.49 21.0322 117.205 21.21 117.205 21.5302ZM125.208 24.447C125.546 25.3718 126.365 25.6919 127.343 25.6919C128.072 25.6919 128.694 25.4074 129.05 25.0161L131.184 26.2433C130.313 27.4527 128.997 28.0752 127.307 28.0752C124.266 28.0752 122.381 26.0299 122.381 23.3799C122.381 20.7298 124.301 18.6845 127.111 18.6845C129.708 18.6845 131.629 20.6943 131.629 23.3799C131.629 23.7533 131.593 24.109 131.522 24.447H125.208ZM125.155 22.455H128.979C128.694 21.4235 127.894 21.05 127.094 21.05C126.08 21.05 125.404 21.548 125.155 22.455ZM133.942 28.0752C133.017 28.0752 132.252 27.3104 132.252 26.3856C132.252 25.4607 133.017 24.696 133.942 24.696C134.867 24.696 135.631 25.4607 135.631 26.3856C135.631 27.3104 134.867 28.0752 133.942 28.0752ZM138.749 18.151C137.877 18.151 137.148 17.4218 137.148 16.5503C137.148 15.6788 137.877 14.9496 138.749 14.9496C139.62 14.9496 140.349 15.6788 140.349 16.5503C140.349 17.4218 139.62 18.151 138.749 18.151ZM137.415 27.8262V18.9335H140.083V27.8262H137.415ZM146.303 28.0752C143.689 28.0752 141.59 26.0299 141.59 23.3799C141.59 20.7298 143.689 18.6845 146.303 18.6845C148.918 18.6845 151.016 20.7298 151.016 23.3799C151.016 26.0299 148.918 28.0752 146.303 28.0752ZM146.303 25.4785C147.459 25.4785 148.349 24.6426 148.349 23.3799C148.349 22.1171 147.459 21.2812 146.303 21.2812C145.147 21.2812 144.258 22.1171 144.258 23.3799C144.258 24.6426 145.147 25.4785 146.303 25.4785Z" fill="white"/>
<defs>
<clipPath id="clip0_2001_899">
<rect width="43" height="43" rx="21.5" fill="white"/>
</clipPath>
</defs>
</svg>
