<svg width="285" height="18" viewBox="0 0 285 18" fill="none" xmlns="http://www.w3.org/2000/svg">
<path d="M29.98 14H28.692L24.1 9.254V14H23.12V4.2H24.1V8.68L28.552 4.2H29.84L25.136 8.96L29.98 14ZM31.5631 5.516C31.1851 5.516 30.8911 5.208 30.8911 4.844C30.8911 4.48 31.1851 4.172 31.5631 4.172C31.9411 4.172 32.2351 4.48 32.2351 4.844C32.2351 5.208 31.9411 5.516 31.5631 5.516ZM31.1011 14V7H32.0251V14H31.1011ZM37.6959 7.896H35.6799V12.138C35.6799 13.342 36.3379 13.244 37.6959 13.188V14C35.8059 14.28 34.7559 13.818 34.7559 12.138V7.896H33.2859V7H34.7559V5.32L35.6799 5.04V7H37.6959V7.896ZM44.832 7H45.756V14H44.832V12.628C44.244 13.566 43.25 14.168 42.004 14.168C40.03 14.168 38.392 12.572 38.392 10.5C38.392 8.428 40.03 6.832 42.004 6.832C43.25 6.832 44.244 7.434 44.832 8.372V7ZM42.074 13.272C43.628 13.272 44.832 12.054 44.832 10.5C44.832 8.946 43.628 7.728 42.074 7.728C40.52 7.728 39.316 8.946 39.316 10.5C39.316 12.054 40.52 13.272 42.074 13.272ZM50.9884 6.832C52.6964 6.832 53.7324 7.952 53.7324 9.702V14H52.8084V9.702C52.8084 8.456 52.1224 7.728 50.9044 7.728C49.6724 7.728 48.6364 8.456 48.6364 10.332V14H47.7124V7H48.6364V8.092C49.1824 7.21 49.9944 6.832 50.9884 6.832ZM55.9811 5.516C55.6031 5.516 55.3091 5.208 55.3091 4.844C55.3091 4.48 55.6031 4.172 55.9811 4.172C56.3591 4.172 56.6531 4.48 56.6531 4.844C56.6531 5.208 56.3591 5.516 55.9811 5.516ZM55.5191 14V7H56.4431V14H55.5191ZM65.1238 14.168C63.3178 14.168 61.9878 13.258 61.4838 11.774L62.3238 11.284C62.6738 12.46 63.5978 13.216 65.1378 13.216C66.6218 13.216 67.4478 12.502 67.4478 11.452C67.4478 10.318 66.4818 9.954 65.0398 9.478C63.4438 8.946 61.9038 8.526 61.9038 6.72C61.9038 4.998 63.2898 4.032 64.9138 4.032C66.5238 4.032 67.6438 4.984 68.1478 6.146L67.3218 6.608C66.9578 5.726 66.2018 4.984 64.9138 4.984C63.7378 4.984 62.8838 5.6 62.8838 6.678C62.8838 7.742 63.7238 8.078 65.0538 8.512C66.8318 9.1 68.4278 9.604 68.4278 11.424C68.4278 13.104 67.0838 14.168 65.1238 14.168ZM73.4752 7.896H71.4592V12.138C71.4592 13.342 72.1172 13.244 73.4752 13.188V14C71.5852 14.28 70.5352 13.818 70.5352 12.138V7.896H69.0652V7H70.5352V5.32L71.4592 5.04V7H73.4752V7.896ZM79.9432 7H80.8672V14H79.9432V12.908C79.3972 13.79 78.5852 14.168 77.5912 14.168C75.8832 14.168 74.8472 13.048 74.8472 11.298V7H75.7712V11.298C75.7712 12.544 76.4572 13.272 77.6752 13.272C78.9072 13.272 79.9432 12.544 79.9432 10.668V7ZM88.8418 4.2H89.7658V14H88.8418V12.628C88.2538 13.566 87.2598 14.168 86.0138 14.168C84.0398 14.168 82.4018 12.572 82.4018 10.5C82.4018 8.428 84.0398 6.832 86.0138 6.832C87.2598 6.832 88.2538 7.434 88.8418 8.372V4.2ZM86.0838 13.272C87.6378 13.272 88.8418 12.054 88.8418 10.5C88.8418 8.946 87.6378 7.728 86.0838 7.728C84.5298 7.728 83.3258 8.946 83.3258 10.5C83.3258 12.054 84.5298 13.272 86.0838 13.272ZM92.1842 5.516C91.8062 5.516 91.5122 5.208 91.5122 4.844C91.5122 4.48 91.8062 4.172 92.1842 4.172C92.5622 4.172 92.8562 4.48 92.8562 4.844C92.8562 5.208 92.5622 5.516 92.1842 5.516ZM91.7222 14V7H92.6462V14H91.7222ZM97.869 14.168C95.825 14.168 94.187 12.572 94.187 10.5C94.187 8.428 95.825 6.832 97.869 6.832C99.913 6.832 101.551 8.428 101.551 10.5C101.551 12.572 99.913 14.168 97.869 14.168ZM97.869 13.272C99.423 13.272 100.627 12.054 100.627 10.5C100.627 8.946 99.423 7.728 97.869 7.728C96.315 7.728 95.111 8.946 95.111 10.5C95.111 12.054 96.315 13.272 97.869 13.272Z" fill="#3DCBB1"/>
<path d="M9 9.75C11.0025 9.75 15 10.755 15 12.75V14.25C15 14.6625 14.6625 15 14.25 15H3.75C3.3375 15 3 14.6625 3 14.25V12.75C3 10.755 6.9975 9.75 9 9.75ZM9 11.1748C6.7725 11.1748 4.4248 12.27 4.4248 12.75V13.5752H13.5752V12.75C13.5752 12.27 11.2275 11.1748 9 11.1748ZM9 3C10.6575 3 12 4.3425 12 6C12 7.6575 10.6575 9 9 9C7.3425 9 6 7.6575 6 6C6 4.3425 7.3425 3 9 3ZM9 4.4248C8.13 4.4248 7.4248 5.13 7.4248 6C7.4248 6.87 8.13 7.5752 9 7.5752C9.87 7.5752 10.5752 6.87 10.5752 6C10.5752 5.13 9.87 4.4248 9 4.4248Z" fill="#1B1B1B" fill-opacity="0.6"/>
</svg>
