<svg width="24" height="24" viewBox="0 0 24 24" fill="none" xmlns="http://www.w3.org/2000/svg">
<path d="M14.0005 19.75C14.0005 20.8499 13.1003 21.7498 12.0005 21.75C10.8905 21.75 10.0005 20.85 10.0005 19.75H14.0005ZM12.0005 2.25C12.8303 2.25019 13.5005 2.92012 13.5005 3.75V4.42969C16.3603 5.10978 18.0005 7.68009 18.0005 10.75V15.75L19.2905 17.04C19.9201 17.67 19.4802 18.7497 18.5806 18.75H5.40967C4.51999 18.7496 4.08056 17.6699 4.71045 17.04L6.00049 15.75V10.75C6.00049 7.67 7.63049 5.10969 10.5005 4.42969V3.75C10.5005 2.92 11.1705 2.25 12.0005 2.25ZM12.0005 6.25C9.51049 6.25 8.00049 8.27 8.00049 10.75V16.75H16.0005V10.75C16.0005 8.27011 14.4903 6.25019 12.0005 6.25Z" fill="#1B1B1B"/>
</svg>
