<svg width="15" height="15" viewBox="0 0 15 15" fill="none" xmlns="http://www.w3.org/2000/svg">
  <path d="M0.0444336 6.40562C-0.410566 2.70437 2.70451 -0.410704 6.40576 0.0442963C8.85575 0.341811 10.8861 2.28466 11.2974 4.71715C11.5947 6.49306 11.0521 8.16415 10.0024 9.38902L10.2466 9.62535H10.938L14.6479 13.3529C15.0067 13.7116 15.0067 14.2979 14.6479 14.6566C14.2892 15.0153 13.703 15.0153 13.3442 14.6566L9.62549 10.9379V10.2464L9.38916 10.0023C8.16428 11.052 6.4932 11.5946 4.71729 11.2972C2.2848 10.886 0.341949 8.85561 0.0444336 6.40562ZM5.68799 1.75035C3.50942 1.75048 1.75061 3.50928 1.75049 5.68785C1.75049 7.86652 3.50935 9.62523 5.68799 9.62535C7.86674 9.62535 9.62549 7.8666 9.62549 5.68785C9.62536 3.50921 7.86666 1.75035 5.68799 1.75035Z" fill="#1B1B1B" />
</svg>