<svg width="122" height="18" viewBox="0 0 122 18" fill="none" xmlns="http://www.w3.org/2000/svg">
<path d="M8 12.6798L10.7667 14.3531C11.2733 14.6598 11.8933 14.2064 11.76 13.6331L11.0267 10.4864L13.4733 8.36643C13.92 7.97976 13.68 7.24643 13.0933 7.19976L9.87334 6.92643L8.61334 3.9531C8.38667 3.4131 7.61334 3.4131 7.38667 3.9531L6.12667 6.91976L2.90667 7.1931C2.32 7.23976 2.08 7.9731 2.52667 8.35976L4.97334 10.4798L4.24 13.6264C4.10667 14.1998 4.72667 14.6531 5.23334 14.3464L8 12.6798Z" fill="#FFD130"/>
<path d="M26 12.6798L28.7667 14.3531C29.2733 14.6598 29.8933 14.2064 29.76 13.6331L29.0267 10.4864L31.4733 8.36643C31.92 7.97976 31.68 7.24643 31.0933 7.19976L27.8733 6.92643L26.6133 3.9531C26.3867 3.4131 25.6133 3.4131 25.3867 3.9531L24.1267 6.91976L20.9067 7.1931C20.32 7.23976 20.08 7.9731 20.5267 8.35976L22.9733 10.4798L22.24 13.6264C22.1067 14.1998 22.7267 14.6531 23.2333 14.3464L26 12.6798Z" fill="#FFD130"/>
<path d="M44 12.6798L46.7667 14.3531C47.2733 14.6598 47.8933 14.2064 47.76 13.6331L47.0267 10.4864L49.4733 8.36643C49.92 7.97976 49.68 7.24643 49.0933 7.19976L45.8733 6.92643L44.6133 3.9531C44.3867 3.4131 43.6133 3.4131 43.3867 3.9531L42.1267 6.91976L38.9067 7.1931C38.32 7.23976 38.08 7.9731 38.5267 8.35976L40.9733 10.4798L40.24 13.6264C40.1067 14.1998 40.7267 14.6531 41.2333 14.3464L44 12.6798Z" fill="#FFD130"/>
<path d="M62 12.6798L64.7667 14.3531C65.2733 14.6598 65.8933 14.2064 65.76 13.6331L65.0267 10.4864L67.4733 8.36643C67.92 7.97976 67.68 7.24643 67.0933 7.19976L63.8733 6.92643L62.6133 3.9531C62.3867 3.4131 61.6133 3.4131 61.3867 3.9531L60.1267 6.91976L56.9067 7.1931C56.32 7.23976 56.08 7.9731 56.5267 8.35976L58.9733 10.4798L58.24 13.6264C58.1067 14.1998 58.7267 14.6531 59.2333 14.3464L62 12.6798Z" fill="#FFD130"/>
<path d="M79.3854 3.94897C79.6122 3.40949 80.3851 3.40959 80.612 3.94897L81.8727 6.91577L85.0993 7.19604C85.6857 7.24298 85.9189 7.97645 85.4723 8.36304L83.026 10.4832L83.7585 13.6365C83.8916 14.2097 83.2719 14.6628 82.7653 14.3562L79.9987 12.6824L77.2321 14.3494C76.7255 14.6559 76.1058 14.2029 76.2389 13.6296L76.9723 10.4832L74.526 8.36304C74.0794 7.97637 74.3193 7.24271 74.9059 7.19604L78.1257 6.92261L79.3854 3.94897ZM79.9987 11.4363L82.5124 12.9558L81.8454 10.1023L84.0592 8.18237L81.1393 7.92944L79.9987 5.23608V11.4363Z" fill="#FFD130"/>
<path d="M93.38 15.4C92.4 13.44 91.84 11.34 91.84 9.1C91.84 6.86 92.4 4.76 93.38 2.8H94.304C93.324 4.76 92.764 6.86 92.764 9.1C92.764 11.34 93.324 13.44 94.304 15.4H93.38ZM97.5188 4.2H98.3588V14H97.3788V5.278L95.1807 5.936L94.9288 5.096L97.5188 4.2ZM101.087 14.14C100.653 14.14 100.317 13.804 100.317 13.37C100.317 12.936 100.653 12.6 101.087 12.6C101.521 12.6 101.857 12.936 101.857 13.37C101.857 13.804 101.521 14.14 101.087 14.14ZM103.263 14V13.118L106.791 9.562C107.617 8.736 108.303 7.882 108.303 6.972C108.303 5.642 107.337 4.984 106.329 4.984C105.377 4.984 104.607 5.404 104.131 6.37L103.305 5.88C103.935 4.634 105.083 4.032 106.329 4.032C107.785 4.032 109.283 5.054 109.283 6.972C109.283 8.218 108.457 9.268 107.463 10.262L104.663 13.048H109.493V14H103.263ZM118.039 14H116.751L112.159 9.254V14H111.179V4.2H112.159V8.68L116.611 4.2H117.899L113.195 8.96L118.039 14ZM119.524 15.4H118.6C119.58 13.44 120.14 11.34 120.14 9.1C120.14 6.86 119.58 4.76 118.6 2.8H119.524C120.504 4.76 121.064 6.86 121.064 9.1C121.064 11.34 120.504 13.44 119.524 15.4Z" fill="#1B1B1B" fill-opacity="0.6"/>
</svg>
